<?xml version="1.0" encoding="utf-8"?>
<!-- Generator: Adobe Illustrator 19.1.0, SVG Export Plug-In . SVG Version: 6.00 Build 0)  -->
<svg version="1.1" id="Layer_1" xmlns="http://www.w3.org/2000/svg" xmlns:xlink="http://www.w3.org/1999/xlink" x="0px" y="0px"
	 viewBox="0 0 180.7 147.7" style="enable-background:new 0 0 180.7 147.7;" xml:space="preserve">
<style type="text/css">
	.st0{fill:#207BC0;}
</style>
<path class="st0" d="M77.3,76.8c6.1-4.3,10.9-10.2,13.9-16.4c2.3-3.9,5.8-10.2,9-16.5c5.1-10.4,12-13.5,12-13.5S102,33.3,96.7,44.2
	c-0.8,1.6-1.5,3-2.1,4.2c0.3-4.9-0.5-11.4-3.7-15.5c-18.1-22.6-58.8,1.5-58.8,1.5S63.4,6.3,91.2,5.4C117.6,4.6,121.3,25,121.3,25
	s4.5-2.8,9.6-3.9c11.9-2.8,17.3,6.6,17.3,6.6l14.9-2.5l-11.4,9.9c0,0,0.3,1.3-1,6c-1.3,4.7-3.9,7.8-3.9,7.8s16.7,3.3,24.6,26.1
	c9.4,26.8-21,63.4-21,63.4s14.6-43.5-7.2-57.6c-21.5-13.8-40.1,5-49.8,11.7c-9.8,6.7-22,14.8-42.4,24.6
	c-11.9,5.8-40.3,13.7-40.3,13.7s19.2-7.8,36.2-19.6c8.4-5.8,10.3-10.9,10.3-10.9s-14.2-0.4-25.2-2.1c-11-1.7-19.1-4.9-19.1-4.9
	S42.8,101.1,77.3,76.8z M136.3,33c1.3,0.4,2.6-0.4,3-1.6c0.4-1.3-0.4-2.6-1.6-2.9c-1.3-0.4-2.6,0.4-2.9,1.6
	C134.3,31.3,135,32.7,136.3,33z"/>
</svg>
