<?xml version="1.0" encoding="utf-8"?>
<!-- Generator: Adobe Illustrator 19.2.1, SVG Export Plug-In . SVG Version: 6.00 Build 0)  -->
<svg version="1.1" id="Layer_1" xmlns="http://www.w3.org/2000/svg" xmlns:xlink="http://www.w3.org/1999/xlink" x="0px" y="0px"
	 viewBox="0 0 312.4 119" style="enable-background:new 0 0 312.4 119;" xml:space="preserve">
<style type="text/css">
	.st0{fill-rule:evenodd;clip-rule:evenodd;fill:#007CCB;}
	.st1{fill-rule:evenodd;clip-rule:evenodd;fill:#58595B;}
	.st2{fill:#BFBFBF;}
</style>
<path class="st0" d="M120.4,31.5c2.1-1.5,3.7-3.5,4.7-5.5c0.8-1.3,2-3.4,3-5.6c1.7-3.5,4-4.6,4-4.6s-3.4,1-5.2,4.7
	c-0.3,0.5-0.5,1-0.7,1.4c0.1-1.7-0.2-3.9-1.3-5.2c-6.1-7.7-19.9,0.5-19.9,0.5s10.6-9.5,20-9.8c8.9-0.3,10.2,6.6,10.2,6.6
	s1.5-0.9,3.2-1.3c4-0.9,5.8,2.2,5.8,2.2l5-0.8l-3.8,3.3c0,0,0.1,0.4-0.3,2c-0.5,1.6-1.3,2.6-1.3,2.6s5.6,1.1,8.3,8.8
	c3.2,9.1-7.1,21.5-7.1,21.5s4.9-14.7-2.4-19.5c-7.3-4.7-13.6,1.7-16.9,4c-3.3,2.3-7.5,5-14.4,8.3c-4,1.9-13.6,4.6-13.6,4.6
	s6.5-2.6,12.3-6.6c2.9-2,3.5-3.7,3.5-3.7s-4.8-0.1-8.5-0.7c-3.7-0.6-6.5-1.6-6.5-1.6S108.7,39.7,120.4,31.5z M140.3,16.7
	c0.4,0.1,0.9-0.1,1-0.6c0.1-0.4-0.1-0.9-0.6-1c-0.4-0.1-0.9,0.1-1,0.6C139.6,16.1,139.9,16.6,140.3,16.7z"/>
<path class="st1" d="M26.6,55.3c10.5,0,15.8,3.5,15.8,10.6v3.5h-3.9v-3.5c0-4.7-3.9-7.1-11.8-7.1c-7.9,0-11.8,2.4-11.8,7.1
	S18.7,73,26.6,73c10.5,0,15.8,3.5,15.8,10.6c0,9.4-5.3,14.1-15.8,14.1c-10.5,0-15.8-3.5-15.8-10.6V80h3.9v7.1
	c0,4.7,3.9,7.1,11.8,7.1s11.8-3.5,11.8-10.6c0-4.7-3.9-7.1-11.8-7.1c-10.5,0-15.8-3.5-15.8-10.6C10.8,58.8,16.1,55.3,26.6,55.3z"/>
<polygon class="st1" points="48,55.3 52,55.3 63.8,87.1 75.6,55.3 87.5,87.1 99.3,55.3 103.2,55.3 87.5,97.7 75.6,65.9 63.8,97.7 
	"/>
<rect x="111.3" y="55.3" class="st1" width="3.9" height="42.4"/>
<path class="st1" d="M131.1,51.8c0-7.1,2.6-10.6,7.9-10.6c5.2,0,3,0,3,0c0,0,0,0.5-0.1,1.8c-0.1,1.3-0.3,1.8-0.3,1.8
	c-2.6,0,0,0-2.6,0c-2.6,0-3.9,2.4-3.9,7.1v3.5h7.5l-0.1,3.5h-7.4v38.8h-3.9V58.8h-7.9v-3.5h7.9V51.8z"/>
<path class="st1" d="M156.2,58.8h-8.1l0-3.5h8V41.2h3.9v14.1H172v3.5h-11.8v28.2c0,4.7,1.3,7.1,3.9,7.1c2.6,0,5.3,0,7.9,0v3.5
	c-0.1,0-2.7,0-7.9,0c-5.3,0-7.9-3.5-7.9-10.6V58.8z"/>
<g>
	<path class="st2" d="M181.5,55.3h14.3c9.6,0,14.4,3.6,14.4,10.7v21.5c0,7.2-4.8,10.7-14.3,10.7h-10.7v14.3h-3.6V55.3z M185.1,94.7
		h10.7c7.2,0,10.7-2.4,10.7-7.2V66c0-4.8-3.6-7.2-10.7-7.2h-10.7V94.7z"/>
	<path class="st2" d="M228.1,55.3c9.6,0,14.3,3.6,14.3,10.7v21.5c0,7.2-4.8,10.7-14.3,10.7c-9.6,0-14.3-3.6-14.3-10.7V66
		C213.8,58.9,218.5,55.3,228.1,55.3z M217.4,66v21.5c0,4.8,3.6,7.2,10.7,7.2c7.2,0,10.7-2.4,10.7-7.2V66c0-4.8-3.6-7.2-10.7-7.2
		C220.9,58.9,217.4,61.2,217.4,66z"/>
	<path class="st2" d="M260.3,55.3c9.6,0,14.3,3.6,14.3,10.7v3.6h-3.6V66c0-4.8-3.6-7.2-10.7-7.2c-7.2,0-10.7,2.4-10.7,7.2
		c0,4.8,3.6,7.2,10.7,7.2c9.6,0,14.3,3.6,14.3,10.7c0,9.6-4.8,14.3-14.3,14.3c-9.6,0-14.3-3.6-14.3-10.7v-7.2h3.6v7.2
		c0,4.8,3.6,7.2,10.7,7.2c7.2,0,10.7-3.6,10.7-10.7c0-4.8-3.6-7.2-10.7-7.2c-9.6,0-14.3-3.6-14.3-10.7
		C246,58.9,250.8,55.3,260.3,55.3z"/>
	<path class="st2" d="M287.6,58.9h-7.2v-3.6h7.2V40.9h3.6v14.3h10.7v3.6h-10.7v28.7c0,4.8,1.2,7.2,3.6,7.2c2.4,0,4.8,0,7.2,0v3.6
		c0,0-2.4,0-7.2,0c-4.8,0-7.2-3.6-7.2-10.7V58.9z"/>
</g>
</svg>
